<?xml version="1.0" encoding="UTF-8"?>
<svg xmlns="http://www.w3.org/2000/svg" xmlns:xlink="http://www.w3.org/1999/xlink" width="50px" height="50px" viewBox="0 0 50 50" version="1.1">
<g id="surface1">
<path style=" stroke:none;fill-rule:nonzero;fill:#0053e0;fill-opacity:1;" d="M 43.320312 37.804688 L 30.507812 24.941406 L 43.351562 12.246094 C 43.875 11.71875 43.875 10.859375 43.351562 10.332031 L 39.695312 6.660156 C 39.445312 6.40625 39.101562 6.269531 38.742188 6.269531 C 38.378906 6.269531 38.039062 6.417969 37.78125 6.660156 L 25 19.316406 L 12.195312 6.671875 C 11.945312 6.414062 11.601562 6.28125 11.242188 6.28125 C 10.878906 6.28125 10.539062 6.425781 10.285156 6.671875 L 6.640625 10.34375 C 6.113281 10.871094 6.113281 11.726562 6.640625 12.257812 L 19.484375 24.953125 L 6.679688 37.804688 C 6.425781 38.058594 6.28125 38.398438 6.28125 38.757812 C 6.28125 39.121094 6.417969 39.460938 6.679688 39.71875 L 10.332031 43.390625 C 10.597656 43.652344 10.9375 43.789062 11.289062 43.789062 C 11.632812 43.789062 11.984375 43.664062 12.246094 43.390625 L 25 30.578125 L 37.765625 43.378906 C 38.027344 43.640625 38.367188 43.78125 38.71875 43.78125 C 39.0625 43.78125 39.414062 43.652344 39.679688 43.378906 L 43.328125 39.707031 C 43.585938 39.453125 43.730469 39.109375 43.730469 38.75 C 43.71875 38.398438 43.574219 38.054688 43.320312 37.804688 Z M 43.320312 37.804688 "/>
</g>
</svg>
