<svg width="65" height="66" viewBox="0 0 65 66" fill="none" xmlns="http://www.w3.org/2000/svg">
<path d="M64.7618 13.935C64.4965 12.9481 64.0126 12.03 63.3441 11.2457C62.6756 10.4613 61.8388 9.82979 60.8929 9.39571C59.947 8.96162 58.915 8.73554 57.8697 8.73345C56.8245 8.73135 55.7916 8.95328 54.8438 9.38357C51.9678 6.41952 48.5031 4.05875 44.6613 2.44541C40.8194 0.832069 36.6811 0 32.4988 0C28.3166 0 24.1782 0.832069 20.3363 2.44541C16.4945 4.05875 13.0298 6.41952 10.1538 9.38357C8.53651 8.65914 6.70098 8.54804 5.00443 9.07189C3.30788 9.59574 1.87171 10.7171 0.975414 12.2176C0.079117 13.7182 -0.213165 15.4906 0.155457 17.1899C0.52408 18.8892 1.52724 20.3939 2.96967 21.411C1.75346 25.3423 1.37386 29.4748 1.85423 33.5546C2.33459 37.6343 3.66475 41.575 5.76294 45.1344C7.86112 48.6938 10.683 51.7966 14.055 54.252C17.427 56.7075 21.2779 58.4636 25.3709 59.4126C25.5448 61.141 26.3712 62.7444 27.6893 63.9108C29.0074 65.0773 30.7228 65.7234 32.5019 65.7234C34.281 65.7234 35.9965 65.0773 37.3146 63.9108C38.6326 62.7444 39.459 61.141 39.633 59.4126C43.7283 58.4654 47.5816 56.7098 50.9556 54.254C54.3297 51.7981 57.1529 48.694 59.2515 45.1328C61.3501 41.5715 62.6797 37.6286 63.1582 33.5468C63.6368 29.465 63.2542 25.3308 62.0342 21.3988C63.2074 20.5688 64.0959 19.4117 64.5827 18.0795C65.0695 16.7473 65.132 15.3025 64.7618 13.935ZM32.4364 51.7111C28.8944 51.7004 25.4068 50.8597 22.2668 49.2598C19.1268 47.6598 16.4261 45.3474 14.3918 42.5169L21.6758 38.3798C22.0951 39.2246 22.7495 39.9371 23.564 40.4359C24.3786 40.9348 25.3205 41.1999 26.2821 41.2008H38.7342C39.7526 41.1985 40.7474 40.9015 41.5929 40.3473C42.4383 39.7931 43.0965 39.0066 43.4841 38.0873L50.974 42.0173C48.9689 44.99 46.2421 47.4328 43.0362 49.1283C39.8303 50.8238 36.2448 51.7194 32.5987 51.7355L32.4364 51.7111ZM31.7186 8.51838V19.0348H26.2509C24.8913 19.0348 23.5872 19.5616 22.6252 20.4995C21.6632 21.4375 21.122 22.7098 21.1203 24.0371V36.2229C21.1235 36.4493 21.1423 36.6753 21.1765 36.8992L13.4993 41.2557C11.5163 38.0336 10.4293 34.3622 10.3456 30.6043C10.262 26.8464 11.1847 23.1322 13.0224 19.8292C14.8602 16.5262 17.5494 13.7486 20.8241 11.7713C24.0987 9.79395 27.8454 8.68528 31.6936 8.55493L31.7186 8.51838ZM42.2857 35.6928V36.1863C42.2824 37.1064 41.9065 37.9879 41.24 38.6386C40.5735 39.2892 39.6705 39.6561 38.7279 39.6593H26.2509C25.5633 39.658 24.8908 39.4623 24.3148 39.0957C23.7388 38.7291 23.2839 38.2075 23.0053 37.5938C22.7993 37.1519 22.6929 36.6719 22.6932 36.1863V24.0005C22.6948 23.0805 23.0704 22.1987 23.7374 21.5487C24.4045 20.8987 25.3084 20.5336 26.2509 20.5336H38.7342C39.6767 20.5336 40.5806 20.8987 41.2477 21.5487C41.9147 22.1987 42.2903 23.0805 42.2919 24.0005L42.2857 35.6928ZM43.8398 36.5093C43.8398 36.3996 43.8398 36.296 43.8398 36.1863V24.0005C43.8284 22.6838 43.2862 21.4245 42.3306 20.4951C41.3751 19.5658 40.083 19.0411 38.7342 19.0348H33.2977V8.53056C37.0915 8.66026 40.7872 9.74084 44.0294 11.6683C47.2715 13.5958 49.951 16.3054 51.81 19.5363C53.6689 22.7672 54.6449 26.4108 54.6438 30.1165C54.6428 33.8221 53.6649 37.4652 51.8041 40.6951L43.8398 36.5093ZM50.7056 15.2754C48.5644 12.7769 45.9057 10.749 42.9044 9.32505C39.903 7.90108 36.627 7.11328 33.2915 7.01342V1.52979C40.9161 1.7329 48.1567 4.84048 53.4644 10.1878C52.6553 10.795 51.9887 11.5643 51.5096 12.444C51.0305 13.3236 50.75 14.2933 50.6869 15.2876L50.7056 15.2754ZM31.7186 1.52979V7.01342C28.3793 7.1193 25.1008 7.91468 22.0992 9.34716C19.0976 10.7796 16.441 12.8167 14.3045 15.3242C14.2737 14.8609 14.1964 14.4017 14.0735 13.9533C13.6717 12.4674 12.776 11.1537 11.5269 10.2183C16.8349 4.85645 24.0832 1.7375 31.7186 1.52979ZM1.7588 17.1155C1.37739 15.7129 1.58102 14.22 2.32509 12.9638C3.06916 11.7075 4.29299 10.7904 5.72846 10.4133C6.20125 10.2926 6.68785 10.2312 7.17652 10.2305C7.8156 10.2324 8.44938 10.3437 9.04901 10.5595C9.37002 10.6654 9.67946 10.8021 9.97278 10.9677C10.1482 11.0647 10.3171 11.1725 10.4783 11.2907C11.208 11.8073 11.7996 12.4878 12.2031 13.2747C12.6067 14.0615 12.8103 14.9316 12.7968 15.8114C12.7834 16.6913 12.5532 17.555 12.1258 18.3297C11.6983 19.1045 11.0862 19.7674 10.341 20.2626C9.59586 20.7577 8.73958 21.0705 7.8445 21.1746C6.94941 21.2787 6.0418 21.171 5.19834 20.8606C4.35488 20.5502 3.60033 20.0462 2.99842 19.3912C2.3965 18.7361 1.9649 17.9493 1.74007 17.0972L1.7588 17.1155ZM4.40524 22.1848C5.86423 22.7876 7.48782 22.897 9.01781 22.4955C9.46811 22.381 9.90522 22.2217 10.3223 22.0203C9.07278 25.2731 8.59218 28.7593 8.91642 32.2188C9.24066 35.6783 10.3614 39.0216 12.1948 41.999L7.37626 44.7347C5.31988 41.3783 3.99469 37.644 3.48349 33.7651C2.9723 29.8862 3.28609 25.9461 4.40524 22.1909V22.1848ZM8.19391 46.0081L13.0249 43.2663C14.8185 45.7941 17.11 47.9478 19.7655 49.6017C22.4211 51.2557 25.3875 52.3766 28.4917 52.8992C28.1201 53.1403 27.7731 53.4158 27.4556 53.7218C26.3135 54.8218 25.5874 56.2674 25.3958 57.8223C18.3648 56.0914 12.2379 51.8835 8.19391 46.0081ZM36.4435 62.5687C35.3871 63.5841 33.9624 64.1508 32.4799 64.1451C30.9974 64.1394 29.5772 63.5618 28.5291 62.5383C27.7441 61.77 27.2135 60.7894 27.0062 59.7233C26.9411 59.3755 26.9077 59.0228 26.9063 58.6692C26.9072 58.4962 26.9176 58.3233 26.9375 58.1513C27.0696 56.8176 27.7012 55.5784 28.7113 54.671C29.7213 53.7637 31.0389 53.2521 32.4114 53.2344H32.5924C33.9632 53.2599 35.2771 53.774 36.2865 54.6797C37.2959 55.5853 37.9311 56.8201 38.0726 58.1513C38.0726 58.3402 38.0726 58.523 38.0726 58.7119C38.0712 59.0513 38.0377 59.3899 37.9727 59.7233C37.7724 60.809 37.2392 61.8097 36.4435 62.5931V62.5687ZM39.608 57.8223C39.4185 56.288 38.7088 54.8597 37.592 53.7644C37.2651 53.4413 36.9054 53.1514 36.5184 52.8992C39.7357 52.3543 42.8033 51.1678 45.5299 49.414C48.2565 47.6602 50.5836 45.3766 52.3659 42.7058L57.2843 45.2892C53.2697 51.5419 46.9375 56.0404 39.608 57.8467V57.8223ZM61.7845 30.0934C61.7936 34.9594 60.5189 39.7458 58.0832 43.9914L53.1773 41.4202C54.8629 38.4887 55.8724 35.2333 56.1355 31.8815C56.3985 28.5296 55.9087 25.1621 54.7003 22.0142C55.6706 22.4833 56.7382 22.7293 57.8211 22.7332C58.4531 22.7336 59.0826 22.6537 59.6936 22.4955C60.0143 22.4071 60.3291 22.2993 60.636 22.1726C61.401 24.7548 61.7876 27.4298 61.7845 30.1178V30.0934ZM60.143 20.7042C59.8632 20.8314 59.573 20.9353 59.2754 21.015C58.2077 21.2818 57.0833 21.2361 56.042 20.8837C55.0007 20.5313 54.0886 19.8877 53.4193 19.033C52.75 18.1783 52.353 17.1502 52.2778 16.0769C52.2026 15.0036 52.4525 13.9324 52.9963 12.9967C53.3834 12.34 53.9089 11.771 54.538 11.3272C54.9738 11.0128 55.4557 10.7643 55.9673 10.59C56.1084 10.5381 56.2521 10.4933 56.398 10.4559C57.7338 10.1684 59.1312 10.3666 60.328 11.0133C61.5248 11.66 62.4388 12.7108 62.8984 13.9685C63.358 15.2263 63.3317 16.6045 62.8243 17.8446C62.317 19.0847 61.3636 20.1015 60.143 20.7042Z" fill="white"/>
</svg>
